<svg xmlns="http://www.w3.org/2000/svg" viewBox="0 0 512 512" width="512" height="512">
  <defs>
    <linearGradient id="cardFront" x1="0%" y1="0%" x2="100%" y2="100%">
      <stop offset="0%" stop-color="#FFFFFF" />
      <stop offset="100%" stop-color="#F3EDF7" />
    </linearGradient>
    <linearGradient id="checkGradient" x1="0%" y1="0%" x2="100%" y2="100%">
      <stop offset="0%" stop-color="#38E54D" />
      <stop offset="100%" stop-color="#1E8C4A" />
    </linearGradient>
    <linearGradient id="checkDepth" x1="0%" y1="0%" x2="100%" y2="100%">
      <stop offset="0%" stop-color="#146C36" />
      <stop offset="100%" stop-color="#0A421E" />
    </linearGradient>
    <filter id="bgShadow" x="-10%" y="-10%" width="120%" height="120%">
      <feDropShadow dx="0" dy="12" stdDeviation="16" flood-color="#4F378B" flood-opacity="0.25" />
    </filter>
    <filter id="cardShadow" x="-20%" y="-20%" width="140%" height="140%">
      <feDropShadow dx="2" dy="8" stdDeviation="10" flood-color="#000000" flood-opacity="0.12" />
    </filter>
    <filter id="strongShadow" x="-20%" y="-20%" width="140%" height="140%">
      <feDropShadow dx="4" dy="12" stdDeviation="12" flood-color="#000000" flood-opacity="0.2" />
    </filter>
  </defs>
  <rect x="32" y="32" width="448" height="448" rx="0" fill="#D0BCFF" filter="url(#bgShadow)" />
  <g transform="translate(256, 256) rotate(-12) translate(-256, -256)">
    <rect x="116" y="116" width="280" height="320" rx="36" fill="#6750A4" filter="url(#cardShadow)" />
  </g>
  <g transform="translate(256, 256) rotate(-4) translate(-256, -256)">
    <rect x="116" y="120" width="280" height="320" rx="36" fill="#D0BCFF" filter="url(#cardShadow)" />
  </g>
  <g transform="translate(256, 256) rotate(6) translate(-256, -256)">
    <rect x="116" y="106" width="280" height="320" rx="36" fill="url(#cardFront)" filter="url(#cardShadow)" />
    <rect x="160" y="156" width="120" height="20" rx="10" fill="#6750A4" opacity="0.8" />
    <rect x="160" y="206" width="190" height="16" rx="8" fill="#CAC4D0" />
    <rect x="160" y="238" width="150" height="16" rx="8" fill="#CAC4D0" />
    <rect x="160" y="286" width="24" height="24" rx="12" fill="#EADDFF" />
    <rect x="200" y="290" width="120" height="16" rx="8" fill="#EADDFF" />
    <rect x="160" y="336" width="24" height="24" rx="12" fill="#F3EDF7" />
    <rect x="200" y="340" width="140" height="16" rx="8" fill="#F3EDF7" />
  </g>
  <g filter="url(#strongShadow)">
    <path d="M220 310 L270 360 L400 210" fill="none" stroke="url(#checkDepth)" stroke-width="56" stroke-linecap="round" stroke-linejoin="round" transform="translate(0, 16)" />
    <path d="M220 310 L270 360 L400 210" fill="none" stroke="#0A421E" stroke-width="56" stroke-linecap="round" stroke-linejoin="round" transform="translate(0, 12)" opacity="0.3" />
    <path d="M220 310 L270 360 L400 210" fill="none" stroke="url(#checkGradient)" stroke-width="56" stroke-linecap="round" stroke-linejoin="round" />
    <path d="M220 310 L270 360 L400 210" fill="none" stroke="#FFFFFF" stroke-width="12" stroke-linecap="round" stroke-linejoin="round" opacity="0.4" transform="translate(-6, -6)" />
  </g>
</svg>
